<mxfile host="app.diagrams.net" modified="2023-11-03T01:23:23.061Z" agent="Mozilla/5.0 (Windows NT 10.0; Win64; x64) AppleWebKit/537.36 (KHTML, like Gecko) Chrome/101.0.0.0 Safari/537.36" version="22.0.8" etag="2KoNjN4VgOksLF0_KmWf" type="github">
  <diagram name="Страница — 1" id="JfSK0EbTdW2aqeJ0WZRY">
    <mxGraphModel>
      <root>
        <mxCell id="0" />
        <mxCell id="1" parent="0" />
      </root>
    </mxGraphModel>
  </diagram>
</mxfile>
